<svg width="30" height="30" viewBox="0 0 30 30" fill="none" xmlns="http://www.w3.org/2000/svg">
<path d="M22.4311 17.8463C21.9824 16.2198 21.0125 14.7854 19.6702 13.7632C18.3278 12.7411 16.6872 12.1875 15 12.1875C13.3127 12.1875 11.6721 12.7411 10.3297 13.7632C8.98739 14.7854 8.01748 16.2198 7.56881 17.8463L6.49959 21.7223C6.30761 22.4182 6.27897 23.149 6.4159 23.8579C6.55282 24.5667 6.85161 25.2343 7.28898 25.8086C7.72634 26.383 8.29045 26.8486 8.93733 27.169C9.5842 27.4895 10.2964 27.6563 11.0183 27.6563H18.9816C19.7036 27.6563 20.4157 27.4895 21.0626 27.169C21.7095 26.8486 22.2736 26.383 22.7109 25.8086C23.1483 25.2343 23.4471 24.5667 23.584 23.8579C23.7209 23.149 23.6923 22.4182 23.5003 21.7223L22.4311 17.8463ZM21.2193 24.6725C20.958 25.0183 20.6198 25.2986 20.2314 25.4911C19.843 25.6835 19.4151 25.7829 18.9816 25.7813H11.0183C10.5851 25.7813 10.1578 25.6812 9.76969 25.4889C9.38155 25.2967 9.04308 25.0173 8.78066 24.6727C8.51823 24.3281 8.33896 23.9275 8.2568 23.5022C8.17465 23.0769 8.19184 22.6384 8.30703 22.2208L9.37625 18.3449C9.7158 17.114 10.4498 16.0286 11.4657 15.255C12.4815 14.4814 13.7231 14.0625 15 14.0625C16.2768 14.0625 17.5184 14.4814 18.5343 15.255C19.5501 16.0286 20.2841 17.114 20.6237 18.3449L21.6929 22.2208C21.8097 22.6382 21.8278 23.0771 21.7456 23.5027C21.6634 23.9283 21.4832 24.3288 21.2193 24.6727V24.6725Z" fill="#F0F0F0"/>
<path d="M8.56057 13.4943C8.72369 12.4748 8.50736 11.3834 7.95119 10.4203C7.39502 9.45727 6.55783 8.72421 5.59355 8.35571C4.5609 7.96132 3.50762 8.02413 2.62672 8.53249C0.875526 9.54358 0.414686 12.0355 1.59963 14.0875C2.15562 15.0505 2.99287 15.7838 3.95715 16.1521C4.3843 16.3185 4.83834 16.4053 5.29678 16.4082C5.86792 16.4103 6.42939 16.2609 6.92399 15.9752C7.80436 15.4668 8.38561 14.5857 8.56057 13.4943ZM6.709 13.198C6.62522 13.7211 6.36857 14.1308 5.98637 14.3514C5.60416 14.5721 5.12111 14.5894 4.626 14.4005C4.06273 14.1854 3.56457 13.7412 3.2232 13.15C2.56695 12.0132 2.72293 10.6422 3.56422 10.1563C3.77571 10.0363 4.01522 9.97446 4.25838 9.97712C4.48647 9.97948 4.71221 10.0235 4.92447 10.107C5.48773 10.3222 5.9859 10.7663 6.32727 11.3576C6.66863 11.9489 6.80416 12.6026 6.709 13.198Z" fill="#F0F0F0"/>
<path d="M8.76354 9.61061C9.42929 10.1428 10.1895 10.42 10.9583 10.4199C11.1886 10.4198 11.4182 10.3951 11.6433 10.346C13.6192 9.91647 14.8173 7.68335 14.314 5.36802C14.0778 4.28134 13.5037 3.32796 12.6975 2.68337C11.8341 1.99314 10.8114 1.73187 9.81776 1.94796C7.84187 2.37745 6.6438 4.61058 7.14706 6.92591C7.38325 8.01265 7.95735 8.96602 8.76354 9.61061ZM10.216 3.78019C10.3071 3.76054 10.4 3.75072 10.4932 3.75089C10.8417 3.75089 11.2002 3.88724 11.5267 4.14821C11.9976 4.52468 12.3368 5.09943 12.4817 5.76663C12.7606 7.04954 12.1943 8.30772 11.245 8.51409C10.8137 8.60784 10.3482 8.4773 9.93442 8.14642C9.46351 7.76989 9.12431 7.19515 8.97935 6.528C8.70038 5.24474 9.26675 3.98655 10.216 3.78019Z" fill="#F0F0F0"/>
<path d="M27.3734 8.53249C26.4928 8.02413 25.439 7.96132 24.4065 8.35571C23.4423 8.72409 22.605 9.45727 22.049 10.4203C21.493 11.3834 21.2766 12.475 21.4396 13.4943C21.6144 14.5858 22.1955 15.4668 23.0762 15.9752C23.5708 16.2609 24.1323 16.4103 24.7034 16.4082C25.1619 16.4054 25.6159 16.3186 26.0431 16.1521C27.0073 15.7838 27.8446 15.0505 28.4006 14.0875C29.5854 12.0355 29.1246 9.54358 27.3734 8.53249ZM26.7769 13.15C26.4355 13.7412 25.9374 14.1854 25.3741 14.4005C24.8792 14.5896 24.3961 14.5722 24.0138 14.3514C23.6316 14.1307 23.3752 13.7211 23.2912 13.198C23.1959 12.6026 23.3314 11.9491 23.6728 11.3581C24.0143 10.7671 24.5124 10.3228 25.0756 10.1075C25.2879 10.024 25.5136 9.97985 25.7417 9.97741C25.9849 9.97475 26.2244 10.0366 26.4359 10.1566C27.2772 10.642 27.4333 12.013 26.7769 13.15Z" fill="#F0F0F0"/>
<path d="M18.3566 10.3459C18.5816 10.395 18.8112 10.4197 19.0415 10.4198C19.8103 10.4198 20.5708 10.1427 21.2363 9.61052C22.0425 8.96599 22.6166 8.01255 22.8528 6.92587C23.3561 4.61054 22.158 2.37741 20.1821 1.94792C19.1885 1.73194 18.1658 1.99304 17.3024 2.68333C16.4961 3.32786 15.922 4.2813 15.6859 5.36792C15.1826 7.68325 16.3806 9.91638 18.3566 10.3459ZM17.5181 5.76624C17.6631 5.09903 18.0023 4.52405 18.4732 4.14782C18.7997 3.88685 19.1581 3.7505 19.5066 3.7505C19.5998 3.75033 19.6928 3.76015 19.7839 3.77979C20.7331 3.98616 21.2995 5.24464 21.0206 6.52726C20.8756 7.19446 20.5364 7.76944 20.0656 8.14573C19.6518 8.47655 19.1866 8.6071 18.755 8.51341C17.8056 8.30733 17.2392 7.04897 17.5181 5.76624Z" fill="#F0F0F0"/>
</svg>
