<svg width="50" height="50" viewBox="0 0 50 50" fill="none" xmlns="http://www.w3.org/2000/svg">
<path d="M25 50C38.8071 50 50 38.8071 50 25C50 11.1929 38.8071 0 25 0C11.1929 0 0 11.1929 0 25C0 38.8071 11.1929 50 25 50Z" fill="#EEB42B"/>
<path fill-rule="evenodd" clip-rule="evenodd" d="M25.029 11.6072C21.6682 11.6072 18.6064 12.7173 16.7947 13.6243C16.631 13.7061 16.4784 13.7865 16.3363 13.8639C16.0551 14.0171 15.8155 14.16 15.625 14.2857L17.686 17.32L18.6563 17.7061C22.4479 19.6191 27.5328 19.6191 31.3252 17.7061L32.4264 17.1347L34.375 14.2857C33.9714 14.0224 33.5517 13.7846 33.1183 13.5737C31.3155 12.6764 28.3267 11.6072 25.0298 11.6072H25.029ZM20.2359 15.0417C19.5061 14.9051 18.7852 14.7242 18.0774 14.5C19.7746 13.7463 22.3036 12.9465 25.029 12.9465C26.9167 12.9465 28.7017 13.3304 30.1778 13.817C28.4479 14.0603 26.602 14.4732 24.843 14.9814C23.4591 15.3817 21.8415 15.3386 20.2359 15.0417ZM32.1109 18.8096L31.9278 18.9018C27.7567 21.006 22.224 21.006 18.0528 18.9018L17.8795 18.814C11.6131 25.6898 6.82889 38.3907 25.029 38.3907C43.2292 38.3907 38.3281 25.4524 32.1109 18.8096ZM24.256 25C23.8613 25 23.4828 25.1568 23.2037 25.4359C22.9247 25.715 22.7679 26.0935 22.7679 26.4881C22.7679 26.8828 22.9247 27.2613 23.2037 27.5404C23.4828 27.8194 23.8613 27.9762 24.256 27.9762V25ZM25.7441 23.5119V22.7679H24.256V23.5119C23.4666 23.5119 22.7096 23.8255 22.1515 24.3836C21.5933 24.9418 21.2798 25.6988 21.2798 26.4881C21.2798 27.2775 21.5933 28.0345 22.1515 28.5926C22.7096 29.1508 23.4666 29.4643 24.256 29.4643V32.4405C23.6087 32.4405 23.0573 32.0276 22.852 31.4487C22.8215 31.354 22.7723 31.2664 22.7074 31.191C22.6425 31.1156 22.5631 31.054 22.474 31.0098C22.3848 30.9657 22.2877 30.9398 22.1884 30.9339C22.0891 30.9279 21.9896 30.9419 21.8958 30.975C21.802 31.0082 21.7158 31.0598 21.6423 31.1268C21.5688 31.1939 21.5095 31.275 21.4678 31.3653C21.4262 31.4557 21.4032 31.5535 21.4 31.6529C21.3968 31.7523 21.4136 31.8514 21.4494 31.9442C21.6547 32.5246 22.0348 33.027 22.5374 33.3824C23.04 33.7378 23.6404 33.9286 24.256 33.9286V34.6727H25.7441V33.9286C26.5334 33.9286 27.2904 33.615 27.8486 33.0569C28.4067 32.4988 28.7203 31.7418 28.7203 30.9524C28.7203 30.1631 28.4067 29.4061 27.8486 28.8479C27.2904 28.2898 26.5334 27.9762 25.7441 27.9762V25C26.3914 25 26.9427 25.413 27.1481 25.9919C27.1786 26.0866 27.2277 26.1742 27.2926 26.2496C27.3576 26.325 27.4369 26.3865 27.5261 26.4307C27.6152 26.4749 27.7123 26.5007 27.8116 26.5067C27.9109 26.5127 28.0104 26.4987 28.1042 26.4655C28.1981 26.4324 28.2843 26.3808 28.3578 26.3137C28.4313 26.2467 28.4906 26.1656 28.5322 26.0752C28.5738 25.9849 28.5969 25.8871 28.6001 25.7876C28.6032 25.6882 28.5864 25.5891 28.5506 25.4963C28.3454 24.916 27.9653 24.4135 27.4627 24.0582C26.9601 23.7028 26.3596 23.512 25.7441 23.5119ZM25.7441 29.4643V32.4405C26.1387 32.4405 26.5172 32.2837 26.7963 32.0047C27.0754 31.7256 27.2322 31.3471 27.2322 30.9524C27.2322 30.5578 27.0754 30.1792 26.7963 29.9002C26.5172 29.6211 26.1387 29.4643 25.7441 29.4643Z" fill="#252626"/>
</svg>
