<svg width="120" height="43" viewBox="0 0 120 43" fill="none" xmlns="http://www.w3.org/2000/svg">
<path d="M8.28 14.728V29.848C8.28 31.36 8.652 32.524 9.396 33.34C10.14 34.156 11.232 34.564 12.672 34.564C14.112 34.564 15.216 34.156 15.984 33.34C16.752 32.524 17.136 31.36 17.136 29.848V14.728H23.292V29.812C23.292 32.068 22.812 33.976 21.852 35.536C20.892 37.096 19.596 38.272 17.964 39.064C16.356 39.856 14.556 40.252 12.564 40.252C10.572 40.252 8.784 39.868 7.2 39.1C5.64 38.308 4.404 37.132 3.492 35.572C2.58 33.988 2.124 32.068 2.124 29.812V14.728H8.28ZM40.5028 40L35.2468 30.46H33.7708V40H27.6148V14.728H37.9468C39.9388 14.728 41.6308 15.076 43.0228 15.772C44.4388 16.468 45.4948 17.428 46.1908 18.652C46.8868 19.852 47.2348 21.196 47.2348 22.684C47.2348 24.364 46.7548 25.864 45.7948 27.184C44.8588 28.504 43.4668 29.44 41.6188 29.992L47.4508 40H40.5028ZM33.7708 26.104H37.5868C38.7148 26.104 39.5548 25.828 40.1068 25.276C40.6828 24.724 40.9708 23.944 40.9708 22.936C40.9708 21.976 40.6828 21.22 40.1068 20.668C39.5548 20.116 38.7148 19.84 37.5868 19.84H33.7708V26.104ZM57.1472 14.728V29.848C57.1472 31.36 57.5192 32.524 58.2632 33.34C59.0072 34.156 60.0992 34.564 61.5392 34.564C62.9792 34.564 64.0832 34.156 64.8512 33.34C65.6192 32.524 66.0032 31.36 66.0032 29.848V14.728H72.1592V29.812C72.1592 32.068 71.6792 33.976 70.7192 35.536C69.7592 37.096 68.4632 38.272 66.8312 39.064C65.2232 39.856 63.4232 40.252 61.4312 40.252C59.4392 40.252 57.6512 39.868 56.0672 39.1C54.5072 38.308 53.2712 37.132 52.3592 35.572C51.4472 33.988 50.9912 32.068 50.9912 29.812V14.728H57.1472ZM85.95 14.728C88.614 14.728 90.942 15.256 92.934 16.312C94.926 17.368 96.462 18.856 97.542 20.776C98.646 22.672 99.198 24.868 99.198 27.364C99.198 29.836 98.646 32.032 97.542 33.952C96.462 35.872 94.914 37.36 92.898 38.416C90.906 39.472 88.59 40 85.95 40H76.482V14.728H85.95ZM85.554 34.672C87.882 34.672 89.694 34.036 90.99 32.764C92.286 31.492 92.934 29.692 92.934 27.364C92.934 25.036 92.286 23.224 90.99 21.928C89.694 20.632 87.882 19.984 85.554 19.984H82.638V34.672H85.554ZM105.734 17.824C104.654 17.824 103.766 17.512 103.07 16.888C102.398 16.24 102.062 15.448 102.062 14.512C102.062 13.552 102.398 12.76 103.07 12.136C103.766 11.488 104.654 11.164 105.734 11.164C106.79 11.164 107.654 11.488 108.326 12.136C109.022 12.76 109.37 13.552 109.37 14.512C109.37 15.448 109.022 16.24 108.326 16.888C107.654 17.512 106.79 17.824 105.734 17.824ZM108.794 19.912V40H102.638V19.912H108.794Z" fill="#F0F0F0"/>
<rect x="98" y="8" width="16" height="11" fill="#353636"/>
<circle cx="105.5" cy="8.5" r="8.5" fill="#F2F2F2"/>
<path d="M99.189 6.76465C98.4645 7.41171 97.4651 8.94496 99.189 10.647M111.806 6.76465C112.456 7.42577 113.455 8.71989 111.806 10.647" stroke="black"/>
<path d="M106.885 2.11768C102.943 4.02944 102.208 11.0294 106.885 14.7941M103.855 2.11768C108.075 3.94121 108.928 11.3236 103.855 14.7941" stroke="black"/>
<path d="M98.7647 6.29419L99.5882 7.11772" stroke="black"/>
<path d="M111.353 10.2354L112.176 11.0589" stroke="black"/>
<path d="M111.353 7.17651L112.176 6.35298" stroke="black"/>
<path d="M98.7647 11.0588L99.5882 10.2353" stroke="black"/>
<path d="M98.5294 7.64722H112.441" stroke="black"/>
<path d="M98.5294 9.64697H112.441" stroke="black"/>
</svg>
