<svg width="154" height="44" viewBox="0 0 154 44" fill="none" xmlns="http://www.w3.org/2000/svg">
<path d="M58.3 26.28V10.296H52.648V26.28C52.648 28.2 52.264 29.616 51.496 30.528C50.728 31.416 49.336 31.86 47.32 31.86C46.168 31.86 45.244 31.704 44.548 31.392C43.876 31.056 43.348 30.636 42.964 30.132C42.58 29.604 42.328 29.004 42.208 28.332C42.088 27.66 42.028 26.976 42.028 26.28V10.296H36.376V26.28C36.376 29.784 37.324 32.376 39.22 34.056C41.14 35.736 43.84 36.576 47.32 36.576C50.752 36.576 53.44 35.736 55.384 34.056C57.328 32.352 58.3 29.76 58.3 26.28ZM68.8196 21.924V14.688H75.0116C76.3076 14.688 77.2796 14.976 77.9276 15.552C78.5756 16.104 78.8996 17.004 78.8996 18.252C78.8996 19.548 78.5756 20.484 77.9276 21.06C77.2796 21.636 76.3076 21.924 75.0116 21.924H68.8196ZM63.1676 10.296V36H68.8196V25.956H74.4716C75.8876 25.956 76.9076 26.268 77.5316 26.892C78.1556 27.516 78.5636 28.5 78.7556 29.844C78.8996 30.876 79.0076 31.956 79.0796 33.084C79.1516 34.212 79.3436 35.184 79.6556 36H85.3076C85.0436 35.64 84.8396 35.208 84.6956 34.704C84.5756 34.176 84.4796 33.624 84.4076 33.048C84.3596 32.472 84.3236 31.908 84.2996 31.356C84.2756 30.804 84.2516 30.324 84.2276 29.916C84.1796 29.268 84.0836 28.62 83.9396 27.972C83.8196 27.324 83.6156 26.736 83.3276 26.208C83.0396 25.656 82.6676 25.188 82.2116 24.804C81.7556 24.396 81.1796 24.096 80.4836 23.904V23.832C81.9236 23.256 82.9556 22.416 83.5796 21.312C84.2276 20.208 84.5516 18.9 84.5516 17.388C84.5516 16.404 84.3716 15.492 84.0116 14.652C83.6756 13.788 83.1716 13.032 82.4996 12.384C81.8516 11.736 81.0596 11.232 80.1236 10.872C79.2116 10.488 78.1796 10.296 77.0276 10.296H63.1676ZM110.964 26.28V10.296H105.312V26.28C105.312 28.2 104.928 29.616 104.16 30.528C103.392 31.416 102 31.86 99.9841 31.86C98.8321 31.86 97.9081 31.704 97.2121 31.392C96.5401 31.056 96.0121 30.636 95.6281 30.132C95.2441 29.604 94.9921 29.004 94.8721 28.332C94.7521 27.66 94.6921 26.976 94.6921 26.28V10.296H89.0401V26.28C89.0401 29.784 89.9881 32.376 91.8841 34.056C93.8041 35.736 96.5041 36.576 99.9841 36.576C103.416 36.576 106.104 35.736 108.048 34.056C109.992 32.352 110.964 29.76 110.964 26.28ZM121.484 31.248V15.048H125.516C126.908 15.048 128.072 15.252 129.008 15.66C129.968 16.044 130.736 16.608 131.312 17.352C131.888 18.096 132.296 18.996 132.536 20.052C132.8 21.084 132.932 22.248 132.932 23.544C132.932 24.96 132.752 26.16 132.392 27.144C132.032 28.128 131.552 28.932 130.952 29.556C130.352 30.156 129.668 30.588 128.9 30.852C128.132 31.116 127.34 31.248 126.524 31.248H121.484ZM115.832 10.296V36H126.92C128.888 36 130.592 35.676 132.032 35.028C133.496 34.356 134.708 33.444 135.668 32.292C136.652 31.14 137.384 29.772 137.864 28.188C138.344 26.604 138.584 24.876 138.584 23.004C138.584 20.868 138.284 19.008 137.684 17.424C137.108 15.84 136.292 14.52 135.236 13.464C134.204 12.408 132.968 11.616 131.528 11.088C130.112 10.56 128.576 10.296 126.92 10.296H115.832ZM147.231 14.508V10.296H142.119V14.508H147.231ZM142.119 17.388V36H147.231V17.388H142.119Z" fill="#F0F0F0"/>
<path d="M22.4312 24.8463C21.9825 23.2198 21.0126 21.7854 19.6702 20.7632C18.3279 19.7411 16.6873 19.1875 15 19.1875C13.3128 19.1875 11.6721 19.7411 10.3298 20.7632C8.98745 21.7854 8.01755 23.2198 7.56887 24.8463L6.49965 28.7223C6.30768 29.4182 6.27903 30.149 6.41596 30.8579C6.55288 31.5667 6.85168 32.2343 7.28904 32.8086C7.7264 33.383 8.29051 33.8486 8.93739 34.169C9.58426 34.4895 10.2964 34.6563 11.0183 34.6563H18.9817C19.7036 34.6563 20.4158 34.4895 21.0627 34.169C21.7095 33.8486 22.2736 33.383 22.711 32.8086C23.1484 32.2343 23.4472 31.5667 23.5841 30.8579C23.721 30.149 23.6924 29.4182 23.5004 28.7223L22.4312 24.8463ZM21.2193 31.6725C20.9581 32.0183 20.6198 32.2986 20.2314 32.4911C19.843 32.6835 19.4152 32.7829 18.9817 32.7813H11.0183C10.5852 32.7813 10.1579 32.6812 9.76975 32.4889C9.38161 32.2967 9.04314 32.0173 8.78072 31.6727C8.5183 31.3281 8.33902 30.9275 8.25686 30.5022C8.17471 30.0769 8.1919 29.6384 8.30709 29.2208L9.37631 25.3449C9.71586 24.114 10.4499 23.0286 11.4657 22.255C12.4816 21.4814 13.7232 21.0625 15 21.0625C16.2769 21.0625 17.5185 21.4814 18.5343 22.255C19.5502 23.0286 20.2842 24.114 20.6237 25.3449L21.693 29.2208C21.8098 29.6382 21.8278 30.0771 21.7456 30.5027C21.6634 30.9283 21.4832 31.3288 21.2193 31.6727V31.6725Z" fill="#F0F0F0"/>
<path d="M8.56057 20.4946C8.72369 19.475 8.50736 18.3836 7.95119 17.4206C7.39502 16.4575 6.55783 15.7245 5.59355 15.356C4.5609 14.9616 3.50762 15.0244 2.62672 15.5327C0.875526 16.5438 0.414686 19.0358 1.59963 21.0877C2.15562 22.0508 2.99287 22.784 3.95715 23.1523C4.3843 23.3188 4.83834 23.4056 5.29678 23.4084C5.86792 23.4105 6.42939 23.2611 6.92399 22.9755C7.80436 22.4671 8.38561 21.586 8.56057 20.4946ZM6.709 20.1982C6.62522 20.7214 6.36857 21.131 5.98637 21.3517C5.60416 21.5723 5.12111 21.5897 4.626 21.4007C4.06273 21.1856 3.56457 20.7415 3.2232 20.1502C2.56695 19.0135 2.72293 17.6424 3.56422 17.1565C3.77571 17.0365 4.01522 16.9747 4.25838 16.9774C4.48647 16.9797 4.71221 17.0237 4.92447 17.1073C5.48773 17.3225 5.9859 17.7666 6.32727 18.3578C6.66863 18.9491 6.80416 19.6028 6.709 20.1982Z" fill="#F0F0F0"/>
<path d="M8.76361 16.6104C9.42935 17.1426 10.1896 17.4197 10.9584 17.4197C11.1887 17.4196 11.4183 17.3948 11.6433 17.3458C13.6193 16.9162 14.8173 14.6831 14.314 12.3678C14.0779 11.2811 13.5038 10.3277 12.6975 9.68313C11.8342 8.99289 10.8115 8.73162 9.81782 8.94772C7.84193 9.37721 6.64386 11.6103 7.14712 13.9257C7.38331 15.0124 7.95741 15.9658 8.76361 16.6104ZM10.216 10.7799C10.3071 10.7603 10.4001 10.7505 10.4933 10.7506C10.8418 10.7506 11.2003 10.887 11.5267 11.148C11.9976 11.5244 12.3368 12.0992 12.4818 12.7664C12.7607 14.0493 12.1943 15.3075 11.2451 15.5138C10.8137 15.6076 10.3483 15.4771 9.93448 15.1462C9.46357 14.7696 9.12437 14.1949 8.97941 13.5278C8.70044 12.2445 9.26681 10.9863 10.216 10.7799Z" fill="#F0F0F0"/>
<path d="M27.3733 15.5327C26.4928 15.0244 25.439 14.9616 24.4065 15.356C23.4422 15.7243 22.605 16.4575 22.049 17.4206C21.493 18.3836 21.2766 19.4753 21.4396 20.4946C21.6143 21.586 22.1954 22.4671 23.0762 22.9755C23.5707 23.2611 24.1322 23.4105 24.7034 23.4084C25.1618 23.4056 25.6158 23.3188 26.043 23.1523C27.0073 22.784 27.8445 22.0508 28.4005 21.0877C29.5853 19.0358 29.1245 16.5438 27.3733 15.5327ZM26.7768 20.1502C26.4355 20.7415 25.9373 21.1856 25.374 21.4007C24.8792 21.5899 24.396 21.5725 24.0138 21.3517C23.6316 21.1309 23.3751 20.7214 23.2911 20.1982C23.1959 19.6028 23.3313 18.9493 23.6728 18.3584C24.0142 17.7674 24.5123 17.323 25.0756 17.1078C25.2878 17.0242 25.5135 16.9801 25.7417 16.9777C25.9848 16.975 26.2243 17.0368 26.4358 17.1568C27.2771 17.6423 27.4333 19.0132 26.7768 20.1502Z" fill="#F0F0F0"/>
<path d="M18.3567 17.3459C18.5817 17.395 18.8113 17.4197 19.0416 17.4198C19.8103 17.4198 20.5709 17.1427 21.2364 16.6105C22.0426 15.966 22.6167 15.0125 22.8529 13.9259C23.3561 11.6105 22.1581 9.37741 20.1822 8.94792C19.1886 8.73194 18.1658 8.99304 17.3024 9.68333C16.4962 10.3279 15.9221 11.2813 15.686 12.3679C15.1826 14.6833 16.3807 16.9164 18.3567 17.3459ZM17.5182 12.7662C17.6632 12.099 18.0024 11.5241 18.4733 11.1478C18.7998 10.8868 19.1582 10.7505 19.5067 10.7505C19.5999 10.7503 19.6928 10.7601 19.784 10.7798C20.7332 10.9862 21.2995 12.2446 21.0207 13.5273C20.8756 14.1945 20.5364 14.7694 20.0656 15.1457C19.6519 15.4766 19.1867 15.6071 18.755 15.5134C17.8057 15.3073 17.2393 14.049 17.5182 12.7662Z" fill="#F0F0F0"/>
</svg>
