<svg width="50" height="50" viewBox="0 0 50 50" fill="none" xmlns="http://www.w3.org/2000/svg">
<path d="M25 47.9166C37.6566 47.9166 47.9167 37.6564 47.9167 24.9999C47.9167 12.3434 37.6566 2.08325 25 2.08325C12.3435 2.08325 2.08337 12.3434 2.08337 24.9999C2.08337 37.6564 12.3435 47.9166 25 47.9166Z" fill="#5BCED8"/>
<path fill-rule="evenodd" clip-rule="evenodd" d="M24.5536 17.829L34.2634 27.5389V34.3471C34.2634 34.9909 34.0076 35.6083 33.5524 36.0635C33.0972 36.5188 32.4797 36.7745 31.8359 36.7745H17.2712C16.6274 36.7745 16.01 36.5188 15.5547 36.0635C15.0995 35.6083 14.8438 34.9909 14.8438 34.3471V27.5389L24.5536 17.829V17.829ZM32.6451 16.5457V22.2098L29.4085 18.9732V16.5457C29.4085 16.3311 29.4937 16.1253 29.6455 15.9736C29.7972 15.8218 30.003 15.7366 30.2176 15.7366H31.8359C32.0505 15.7366 32.2564 15.8218 32.4081 15.9736C32.5598 16.1253 32.6451 16.3311 32.6451 16.5457Z" fill="#252626"/>
<path fill-rule="evenodd" clip-rule="evenodd" d="M23.4094 14.9274C23.7129 14.624 24.1245 14.4536 24.5536 14.4536C24.9827 14.4536 25.3942 14.624 25.6977 14.9274L36.4546 25.6827C36.6065 25.8346 36.6919 26.0407 36.6919 26.2556C36.6919 26.4704 36.6065 26.6765 36.4546 26.8284C36.3027 26.9804 36.0966 27.0657 35.8817 27.0657C35.6668 27.0657 35.4608 26.9804 35.3088 26.8284L24.5536 16.0716L13.7983 26.8284C13.6464 26.9804 13.4403 27.0657 13.2255 27.0657C13.0106 27.0657 12.8045 26.9804 12.6526 26.8284C12.5006 26.6765 12.4153 26.4704 12.4153 26.2556C12.4153 26.0407 12.5006 25.8346 12.6526 25.6827L23.4094 14.9274Z" fill="#252626"/>
</svg>
